<svg version="1.1" id="Layer_1" xmlns="http://www.w3.org/2000/svg" xmlns:xlink="http://www.w3.org/1999/xlink" x="0px" y="0px"
	 width="100%" viewBox="0 0 162 321" enable-background="new 0 0 162 321" xml:space="preserve">
<path fill="#f54900" opacity="1.000000" stroke="none" 
	d="
M126.666672,1.000000 
	C126.991653,8.961006 126.977493,16.922010 126.975883,24.883018 
	C126.962662,90.350212 126.952034,155.817413 126.932228,221.284607 
	C126.932137,221.590973 126.811790,221.897308 126.617783,222.823212 
	C125.754387,221.685471 125.041389,220.929337 124.536804,220.053162 
	C118.307045,209.235550 112.020164,198.448853 105.978355,187.526764 
	C104.843925,185.476013 104.208664,182.867157 104.205406,180.514664 
	C104.151024,141.201111 104.234047,101.887360 104.286026,62.573650 
	C104.288353,60.812572 104.286316,59.051483 104.286316,56.398819 
	C102.159813,57.788189 100.795250,58.604141 99.510689,59.530987 
	C89.246719,66.936722 79.064774,74.458977 68.698196,81.717728 
	C66.050056,83.571968 65.080132,85.560234 65.198059,88.728882 
	C65.414688,94.549858 64.974762,100.397614 65.251923,106.213081 
	C65.416023,109.656288 64.132744,111.703842 61.406620,113.576790 
	C55.423176,117.687599 49.633408,122.080307 43.102921,126.840172 
	C42.903893,125.055527 42.714539,124.154305 42.716125,123.253403 
	C42.743683,107.594604 42.679230,91.933601 42.981827,76.279800 
	C43.021118,74.247139 44.467800,71.539291 46.126942,70.346413 
	C68.569473,54.210831 91.169693,38.294659 113.708290,22.292351 
	C114.767693,21.540178 115.937286,20.656227 116.508194,19.550920 
	C119.557076,13.648170 122.431732,7.655436 125.183327,1.346912 
	C125.444443,1.000000 125.888893,1.000000 126.666672,1.000000 
z"/>
<path fill="#f54900" opacity="1.000000" stroke="none" 
	d="
M138.831604,143.753616 
	C145.721741,148.387375 152.718292,152.876389 159.402740,157.789993 
	C160.588867,158.661896 160.897491,161.299591 160.901611,163.123489 
	C160.996201,204.942062 160.992905,246.760864 161.006165,288.579620 
	C161.009430,298.882660 161.006653,309.185699 161.006653,320.197113 
	C154.794006,320.197113 148.855606,320.414124 142.957474,320.023376 
	C141.701324,319.940155 140.283188,317.817780 139.460800,316.344086 
	C127.129349,294.246002 114.886497,272.098480 102.617943,249.965302 
	C101.821045,248.527664 100.984528,247.111969 99.373764,244.304459 
	C99.373764,270.374146 99.373764,294.968079 99.373764,319.971985 
	C91.710022,319.971985 84.633514,319.971985 77.067062,319.971985 
	C77.067062,267.227753 77.067062,214.277695 77.067062,159.941849 
	C97.389130,195.485565 117.077530,229.920990 136.899719,264.882874 
	C137.361526,265.509003 137.689514,265.608643 138.017517,265.708282 
	C138.074463,252.241882 138.174866,238.775513 138.179153,225.309097 
	C138.187576,198.862946 138.142532,172.416809 138.339417,145.339539 
	C138.650024,144.390152 138.740814,144.071884 138.831604,143.753616 
z"/>
<path fill="#f54900" opacity="1.000000" stroke="none" 
	d="
M5.462906,320.488647 
	C4.620443,318.931458 3.896723,317.436920 3.895139,315.941559 
	C3.844326,267.954834 3.834078,219.967941 3.975891,171.981537 
	C3.981723,170.008255 4.945813,167.255447 6.420531,166.187729 
	C24.766973,152.904510 43.289566,139.864563 61.773876,126.771950 
	C62.560303,126.214928 63.414780,125.753967 65.096130,124.720520 
	C65.096130,133.801849 65.221474,142.183838 64.959732,150.553711 
	C64.920883,151.795914 63.250942,153.249725 62.006195,154.150330 
	C51.345512,161.863724 40.580151,169.432571 29.930706,177.161224 
	C28.571312,178.147781 26.763428,179.790176 26.742924,181.152512 
	C26.515411,196.269760 26.599646,211.391678 26.599646,226.918671 
	C39.267422,226.918671 51.693245,226.918671 64.470535,226.918671 
	C64.470535,234.388672 64.470535,241.459320 64.470535,249.043213 
	C52.078979,249.043213 39.673943,249.043213 26.862375,249.043213 
	C26.862375,265.625610 26.862375,281.703888 26.862375,298.388672 
	C39.376652,298.388672 51.767593,298.388672 64.535126,298.388672 
	C64.535126,305.889893 64.535126,312.802765 64.535126,320.550903 
	C45.071987,320.550903 25.495148,320.550903 5.462906,320.488647 
z"/>
<path fill="#f54900" opacity="1.000000" stroke="none" 
	d="
M138.555878,143.844879 
	C138.740814,144.071884 138.650024,144.390152 138.367035,144.874374 
	C138.209930,144.672272 138.245041,144.304214 138.555878,143.844879 
z"/>
<path fill="#f54900" opacity="1.000000" stroke="none" 
	d="
M137.783234,265.502594 
	C137.689514,265.608643 137.361526,265.509003 137.015381,265.207825 
	C137.181152,265.103149 137.365051,265.200012 137.783234,265.502594 
z"/>
</svg>